
        <svg xmlns="http://www.w3.org/2000/svg" xmlns:xlink="http://www.w3.org/1999/xlink" version="1.1" width="3162.3083859332733" height="851.5987833927045" viewBox="0 0 3162.3083859332733 851.5987833927045">
			
			<g transform="scale(8.115419296663662) translate(10, 10)">
				<defs id="SvgjsDefs2178"/><g id="SvgjsG2179" featureKey="tOsHRK-0" transform="matrix(0.9426847499424271,0,0,-0.9426847499424271,-5.467571729468922,89.64931828110204)" fill="#000"><g xmlns="http://www.w3.org/2000/svg"><path d="M89.7,63.9c-1.9-2.7-3.7-5.1-4.9-8c-0.4-1-1-2-1.7-2.8c-2.8-3.2-5.6-6.4-8.5-9.6c-5.1-5.7-11.2-10.3-17.8-14.1   c-6-3.5-12.1-6.9-18.2-10.2c-2.5-1.4-5.2-2.6-7.8-3.8c-1.3-0.6-2.8-0.8-4.1-1.3c-1.5-0.5-3.1-0.8-4.5-1.5c-3-1.6-6.3-2.2-9.4-3.1   c-1.2-0.4-2.4-0.6-3.1-1.8c-0.9-1.5-0.9-2,0.7-2.2c1.8-0.3,3.8-0.5,5.6-0.3c4,0.5,8,1.3,12,2c1,0.2,1.9,0.6,2.9,1   c10.9,4.7,21.2,10.4,31.2,16.7c6,3.8,11.3,8.4,15.7,13.9c1.8,2.3,3.7,4.5,5.6,6.7c1.7,1.9,3.1,4,4,6.4c1,2.5,2.2,4.9,3.3,7.3   C91.5,60.9,91,62.3,89.7,63.9z"/><path d="M5.8,21.8c2.3-1.4,4.5-1.8,7-1.4c4.7,0.8,9.3,2.2,13.7,4.1c5.9,2.5,11.8,4.7,17.3,8.1C55,39.6,64.3,48.5,72.2,58.9   c3.2,4.2,6.9,8.1,9.5,12.7c1.1,1.9,2,3.9,3,5.8c1,1.8,2.1,3.5,3,5.3c0.8,1.6,1.2,3.4,1.8,5.1c0.5,1.5,1,3,1.6,4.5   c0.2,0.6,0.6,1.2-0.1,1.8c-0.7,0.6-1.4,0.3-1.9-0.2c-0.4-0.4-0.9-0.8-1-1.3c-0.5-2.6-2.3-4.5-3.5-6.7c-0.3-0.6-0.8-1.1-1-1.7   c-2.3-5.5-5.9-10.3-9.6-14.9c-5.3-6.4-10.5-12.9-16.6-18.6C52.4,46,47.1,42,41.4,38.4c-4.4-2.7-8.9-5.2-13.5-7.5   c-4.1-2.1-8.4-3.9-12.7-5.6c-1.9-0.7-3.9-1-5.9-1.4C8,23.7,6.9,23.2,5.8,21.8z"/><path d="M72.7,93.2c-1.9-2.4-3.9-4.8-5.6-7.3c-2.2-3.3-4.3-6.4-7.4-9c-5.1-4.2-9.9-8.7-15-12.9c-5.1-4.2-10.8-7.6-16.7-10.4   c-2.7-1.3-5.4-2.7-8.3-3.8c-1.9-0.7-3.7-1.4-5.5-2.5c-1.5-0.9-3.4-1.2-5.1-1.7c-0.8-0.3-1.7-0.4-2.4-0.9c-0.4-0.3-0.7-1.1-0.7-1.7   c0-0.4,0.7-1,1.2-1c1.3-0.2,2.6-0.3,3.9-0.1c4.1,0.7,8.1,1.4,11.9,3.4c0.8,0.4,1.6,0.8,2.4,1c6.4,1.7,11.6,5.6,16.9,9.2   c3.9,2.7,7.3,6.2,11,9.1c3.8,3,7.2,6.3,10.1,10.1c1.9,2.6,3.7,5.4,5.4,8.1c1.2,2,2.3,4,3.4,6.1c0.6,1.3,1,2.7,1.1,4.1   C73,93,72.8,93.1,72.7,93.2z"/><path d="M93.4,37.1c-0.4,0.5-0.6,0.9-1,1.2c-1.3,1.3-2,1.2-3.1-0.3c-0.9-1.2-1.7-2.5-2.6-3.7C82.2,28.2,76,23.9,70,19.3   c-2.7-2-5.4-4.2-8.1-6.2c-0.7-0.5-1.4-1.2-2.2-1.4c-1.9-0.5-3.2-1.9-4.7-3c-0.4-0.3-0.7-0.8-0.9-1.2c-0.3-0.9,0-1.5,0.9-1.5   c1.3,0,2.6,0,3.9,0.4c3.6,1.1,6.8,3.3,9.8,5.5c1.5,1.1,2.8,2.3,4.3,3.3c4.1,2.7,7.7,5.9,11.4,9.1C87.5,26.9,91.5,32.7,93.4,37.1z"/><path d="M51.4,92.8c-1.3-2.1-2.5-3.5-3.2-5.2c-1.2-3-2.9-5.4-5.6-7.3c-2.2-1.6-4-3.5-6.3-5c-3-2-6.3-3.6-9.4-5.4   C21.8,67,16,65.7,10.4,64.2c-1-0.3-2.1-0.3-3.2-0.5c-0.3-0.1-0.9-0.6-0.8-0.8c0-0.4,0.4-1,0.7-1.2c0.8-0.3,1.7-0.5,2.5-0.5   c3.9,0.1,7.7,0.9,11.5,2c4.4,1.2,8.5,3.2,12.6,5.3c3.5,1.8,6.7,4.3,9.6,7.1c1.8,1.7,3.8,3.1,5,5.4c1.2,2.3,2.4,4.6,3.5,7   c0.4,0.8,0.5,1.8,0.5,2.7C52.3,91.2,51.8,91.8,51.4,92.8z"/><path d="M81.4,5c6.8,1.9,9.8,7.3,12.8,12.6c-2.7,3-3.3,3.1-5.6,0.1c-1.7-2.2-3.3-4.4-4.9-6.6c-0.2-0.3-0.5-0.5-0.8-0.7   C80.7,9,80.4,8.1,81.4,5z"/><path d="M27.8,94.9c-0.7-1.9-1.3-3.8-2.2-5.6c-1.4-3-3.4-5.4-6.4-6.7c-2.9-1.2-6-2.2-8.9-3.3c-1.3-0.5-2-1-2.8-2.3   c1.4-0.6,2.9-0.4,4.2,0c3.1,0.9,6.1,1.8,9,3.1c1.5,0.6,2.6,2,3.9,3.1c2.9,2.4,3.3,6.1,4.5,9.4c0.4,1.1-0.5,1.7-0.7,2.5   C28.2,95,28,94.9,27.8,94.9z"/></g></g><g id="SvgjsG2180" featureKey="dVtZHI-0" transform="matrix(3.235461319584992,0,0,3.235461319584992,102.35291221016872,-4.412767917509953)" fill="#000"><path d="M0.2 21.86 l0 -1.86 l0.66 0 l1.28 1.3 s0.42 0.44 0.94 0.44 c0.28 0 0.58 -0.14 0.88 -0.52 l2.5 -3.28 l-3.8 -5.94 c-0.08 -0.14 -0.2 -0.24 -0.32 -0.32 l-1.18 -0.78 l0 -0.56 l4.06 0 l0 0.56 l-0.1 0.12 c-0.32 0.34 -0.38 0.92 -0.1 1.34 l2.52 4.06 l2.72 -3.98 c0.12 -0.18 0.2 -0.4 0.2 -0.62 c0 -0.34 -0.14 -0.66 -0.42 -0.86 l0 -0.62 l2.6 0 l0 0.62 l-0.56 0.34 c-0.12 0.08 -0.22 0.2 -0.3 0.3 l-7.28 10.16 s-1.16 1.36 -2.24 1.36 c-0.6 0 -1.3 -0.32 -2.06 -1.26 z M12.82 15.22 c0 -3.02 2.44 -4.96 5.22 -4.96 c2.82 0 5.32 1.88 5.32 4.96 c0 3.1 -2.5 4.96 -5.32 4.96 c-2.78 0 -5.22 -1.92 -5.22 -4.96 z M15.38 15.88 c0.68 2.32 2.34 3.94 3.96 3.56 c1.58 -0.38 2.32 -2.54 1.6 -4.88 c-0.68 -2.28 -2.5 -3.86 -4.14 -3.5 c-1.58 0.36 -2.12 2.48 -1.42 4.82 z M33.28 11.3 l0 -2.08 c0 -0.98 -0.4 -1.92 -1.08 -2.64 l0 -0.58 l3.26 0 l0 14.02 c-0.64 -0.28 -1.3 -0.42 -1.96 -0.42 c-1.16 0 -2.14 0.62 -3.34 0.62 c-2.8 0 -5.46 -2.26 -5.46 -4.98 c0 -2.78 2.16 -5.04 5.46 -5.04 c1.18 0 2.24 0.44 3.12 1.1 z M31 19.7 c1.52 0 2.5 -1.52 2.5 -3.36 c0 -3.06 -2.24 -5.56 -4.16 -5.56 c-1.52 0 -2.36 1.44 -2.36 3.2 c0 0.6 0.1 1.26 0.32 1.94 c0.68 2.2 2.16 3.78 3.7 3.78 z M37.3 15.22 c0 -3.02 2.44 -4.96 5.22 -4.96 c2.82 0 5.32 1.88 5.32 4.96 c0 3.1 -2.5 4.96 -5.32 4.96 c-2.78 0 -5.22 -1.92 -5.22 -4.96 z M39.86 15.88 c0.68 2.32 2.34 3.94 3.96 3.56 c1.58 -0.38 2.32 -2.54 1.6 -4.88 c-0.68 -2.28 -2.5 -3.86 -4.14 -3.5 c-1.58 0.36 -2.12 2.48 -1.42 4.82 z M49.08 20 l0 -0.54 c0.6 -0.7 0.96 -1.66 0.96 -2.62 l0 -7.66 c0 -0.96 -0.36 -1.9 -0.94 -2.58 l0 -0.6 l2.94 0 l0 10.86 c0 0.94 0.36 1.9 0.98 2.6 l0 0.54 l-3.94 0 z M62.04 20 l-0.54 -0.14 c-0.9 -0.24 -1.88 -0.24 -2.72 0.02 c-0.34 0.1 -0.66 0.12 -0.98 0.12 c-1.96 0 -3.52 -1.54 -3.52 -3.48 c0 -1.9 1.56 -3.46 3.52 -3.46 c0.78 0 1.48 0.24 2.02 0.62 l0 -0.02 s0.16 -2.44 -0.92 -2.74 c-1.12 -0.32 -1.52 0.34 -2.34 1.58 l-1.68 -0.02 c0.52 -1.32 1.54 -2.24 2.98 -2.24 c0.54 0 1.1 0.1 1.64 0.26 c0 0 2.54 0.78 2.54 3.16 l0 6.34 z M55.9 17.02 c0.46 1.5 1.6 2.56 2.76 2.3 c1.12 -0.26 1.64 -1.72 1.18 -3.28 c-0.44 -1.48 -1.74 -2.54 -2.86 -2.26 c-1.14 0.28 -1.54 1.72 -1.08 3.24 z M63.82 20.02 l0 -10.8 c0 -0.98 -0.38 -1.92 -1.04 -2.64 l0 -0.58 l3.2 0 l0 5.12 c0.78 -0.5 1.76 -0.84 2.78 -0.84 c3.2 0 5.2 2.18 5.2 4.9 c0 2.68 -2.46 4.84 -5.2 4.84 c-0.54 0 -1.02 -0.06 -1.5 -0.22 c-1.14 -0.4 -2.38 -0.26 -3.44 0.22 z M65.98 15.84 c0.68 2.24 2.36 3.74 4.02 3.36 c1.62 -0.38 2.42 -2.48 1.74 -4.72 c-0.68 -2.2 -2.52 -3.66 -4.18 -3.3 c-1.64 0.36 -2.26 2.46 -1.58 4.66 z M75.42 19.18 l0 -1.42 l0.66 0 l0.78 0.84 c0.52 0.56 1.14 0.78 2.02 0.76 c0.8 0 2.02 -0.3 2.02 -1.04 c0 -0.94 -1.82 -2.08 -2.9 -2.72 c-0.94 -0.54 -2.58 -1.48 -2.58 -2.62 c0 -2.18 2.54 -2.72 3.28 -2.72 c0.94 0 1.88 0.22 2.88 0.68 l0 1.38 l-0.72 0 l-0.58 -0.66 c-0.42 -0.48 -1.02 -0.8 -1.68 -0.78 c-0.6 0 -1.72 0.46 -1.72 1.16 c0 0.82 1.94 1.44 3.96 2.82 c1.22 0.82 1.78 1.84 1.78 2.76 c0 1.32 -1.12 2.44 -3.04 2.44 c-2.5 0 -4.16 -0.88 -4.16 -0.88 z"/></g>
			</g>
		</svg>
	